<?xml version="1.0" encoding="UTF-8"?>
<svg version="1.1" xmlns="http://www.w3.org/2000/svg" width="512" height="512">
<path d="M0 0 C10.48764187 9.1542984 15.68575244 25.25781936 17.05859375 38.796875 C17.05859375 40.116875 17.05859375 41.436875 17.05859375 42.796875 C47.08859375 42.796875 77.11859375 42.796875 108.05859375 42.796875 C109.54359375 37.846875 109.54359375 37.846875 111.05859375 32.796875 C112.56144589 28.72423903 114.25024844 24.73547953 115.93359375 20.734375 C116.56587891 19.19813477 116.56587891 19.19813477 117.2109375 17.63085938 C124.88480678 -0.73245168 124.88480678 -0.73245168 132.87109375 -6.515625 C137.63624711 -8.01324463 141.72013424 -7.69217751 146.30859375 -6.015625 C150.29420529 -3.38874467 152.54839906 -0.73370908 154.05859375 3.796875 C154.67649563 14.64877676 149.22413349 24.57894046 144.87109375 34.27734375 C144.50306641 35.10117554 144.13503906 35.92500732 143.75585938 36.77380371 C142.85837419 38.7822182 141.9592605 40.78988578 141.05859375 42.796875 C141.62742783 42.78799255 142.1962619 42.77911011 142.78233337 42.7699585 C148.73637784 42.68103289 154.69023173 42.62095439 160.64477539 42.57714844 C162.86295238 42.557111 165.08107707 42.52987327 167.29907227 42.49511719 C170.49899247 42.44625247 173.69821049 42.42382688 176.8984375 42.40625 C177.88005356 42.38560486 178.86166962 42.36495972 179.87303162 42.34368896 C187.22229048 42.34132759 193.72533821 43.65081316 199.21484375 48.83203125 C199.65828125 49.50105469 200.10171875 50.17007813 200.55859375 50.859375 C201.02265625 51.53097656 201.48671875 52.20257813 201.96484375 52.89453125 C203.85222907 56.17723358 204.20528205 58.9385474 204.29907227 62.64794922 C204.33769127 64.12495804 204.33769127 64.12495804 204.37709045 65.63180542 C204.46138651 70.12468495 204.5270627 74.6174069 204.57348633 79.11083984 C204.60518036 81.48155364 204.65298974 83.85210767 204.71704102 86.22216797 C204.80815976 89.64090535 204.84707064 93.05679535 204.875 96.4765625 C204.93222984 98.06426956 204.93222984 98.06426956 204.99061584 99.68405151 C204.98289109 102.6019914 204.90567376 105.00286116 204.05859375 107.796875 C202.14142306 109.64835445 200.39078118 110.69825379 197.97520447 111.80813599 C195.72392417 112.77331049 195.72392417 112.77331049 194.05859375 115.796875 C193.71838287 119.47115249 193.78668825 122.09311958 195.12109375 125.546875 C197.67458264 128.51221694 200.46957069 129.35296746 204.05859375 130.796875 C204.16037424 137.77103144 204.23021871 144.74499489 204.27832031 151.71972656 C204.29838201 154.09024209 204.32563801 156.46070845 204.36035156 158.83105469 C204.40910793 162.24686851 204.43161774 165.66202555 204.44921875 169.078125 C204.46986389 170.13052368 204.49050903 171.18292236 204.51177979 172.26721191 C204.51408784 179.90995453 203.23235083 185.534958 197.80859375 191.109375 C190.35080219 195.68574709 183.97364625 196.22415592 175.41015625 196.13745117 C173.6966523 196.13810829 173.6966523 196.13810829 171.9485321 196.13877869 C168.19337547 196.13669784 164.43867187 196.11339924 160.68359375 196.08984375 C158.0718612 196.08424531 155.4601255 196.07997639 152.84838867 196.07698059 C146.68974108 196.06768373 140.53125466 196.04310227 134.3726778 196.01293212 C127.35692912 195.97931425 120.34117244 195.96288361 113.32536316 195.94784582 C98.90302384 195.91655034 84.48081105 195.86383617 70.05859375 195.796875 C69.6253479 196.70095093 69.6253479 196.70095093 69.18334961 197.62329102 C59.35055669 216.62510463 39.96051822 235.89198362 19.99609375 243.296875 C11.22298914 245.88603894 2.72661088 246.02314605 -5.6875 242.1875 C-14.18895248 236.94223643 -18.2068015 228.0403564 -20.62890625 218.734375 C-22.03429538 212.63162548 -22.98651359 206.85719493 -22.9609375 200.5859375 C-22.95811768 199.6882666 -22.95529785 198.7905957 -22.95239258 197.86572266 C-22.94876709 197.18300293 -22.9451416 196.5002832 -22.94140625 195.796875 C-23.74906937 195.80575745 -24.55673248 195.81463989 -25.38887024 195.8237915 C-32.99614855 195.90390226 -40.60322269 195.96482107 -48.21081257 196.00412369 C-52.12208851 196.02500888 -56.03301627 196.05334259 -59.9440918 196.09863281 C-63.71774408 196.14205876 -67.49106123 196.16600509 -71.26494408 196.17638397 C-72.7055101 196.18378133 -74.14605755 196.19822673 -75.58648109 196.21979523 C-77.60215021 196.24877997 -79.61815576 196.25050847 -81.6340332 196.25097656 C-83.35611748 196.26430023 -83.35611748 196.26430023 -85.11299133 196.27789307 C-87.94140625 195.796875 -87.94140625 195.796875 -89.83561707 193.89349365 C-90.94140625 191.796875 -90.94140625 191.796875 -90.94140625 189.796875 C-95.57654482 188.84321285 -95.57654482 188.84321285 -100.19140625 189.421875 C-102.15859868 190.74377046 -102.15859868 190.74377046 -103.05395508 193.35229492 C-104.94140625 195.796875 -104.94140625 195.796875 -108.49487305 196.36450195 C-109.96036217 196.36371188 -111.4260022 196.33554521 -112.890625 196.28515625 C-113.66324173 196.27808151 -114.43585846 196.27100677 -115.23188782 196.26371765 C-117.69854767 196.23573755 -120.16293329 196.17299907 -122.62890625 196.109375 C-124.30139949 196.0842965 -125.97392834 196.06148254 -127.64648438 196.04101562 C-131.74566734 195.98589991 -135.84315132 195.89960796 -139.94140625 195.796875 C-140.21742676 196.51423828 -140.49344727 197.23160156 -140.77783203 197.97070312 C-149.32639707 218.7340663 -161.27213409 241.64329062 -175.94140625 258.796875 C-176.68390625 259.70179688 -176.68390625 259.70179688 -177.44140625 260.625 C-180.44519009 263.73118556 -183.31525382 264.16474517 -187.44140625 264.359375 C-192.31998748 264.12737725 -195.23475576 263.13286044 -198.94140625 259.796875 C-202.32830822 255.92612989 -202.70471043 253.11524612 -202.51953125 248.0625 C-201.27126244 241.0114681 -197.39642667 234.97382014 -193.94140625 228.796875 C-192.7906598 226.69977094 -191.64099674 224.60207216 -190.4921875 222.50390625 C-183.32256354 209.4657568 -175.97704934 196.5275654 -168.56494141 183.62597656 C-165.77282982 178.76056468 -162.99203422 173.8886868 -160.20993042 169.01754761 C-158.50106813 166.02577136 -156.79151286 163.03439115 -155.08203125 160.04296875 C-154.38997067 158.83187037 -153.69791338 157.62077011 -153.00585938 156.40966797 C-132.94140625 121.29687501 -132.94140625 121.29687501 -131.94143677 119.54693604 C-131.27465961 118.38007093 -130.60789122 117.21320081 -129.94113159 116.04632568 C-128.27622719 113.13265409 -126.61117139 110.21906922 -124.94580078 107.30566406 C-121.92463301 102.02007538 -118.90465025 96.73382565 -115.8901825 91.44441223 C-107.48588218 76.69765687 -99.03657712 61.97889485 -90.43554688 47.34570312 C-89.10073096 45.06866421 -87.77707843 42.78561711 -86.45703125 40.5 C-74.46031466 19.88064336 -60.37227968 0.81706081 -36.94140625 -7.203125 C-23.75236739 -10.51621156 -10.95358806 -7.88814541 0 0 Z M-38.50390625 26.859375 C-42.23178804 30.80654395 -47.94140625 37.14234148 -47.94140625 42.796875 C-43.11759823 42.8215269 -38.29382658 42.83971193 -33.4699707 42.85180664 C-31.82771161 42.85684674 -30.18545702 42.86367878 -28.54321289 42.87231445 C-26.18765146 42.88439426 -23.83214916 42.89010639 -21.4765625 42.89453125 C-20.36874168 42.90227318 -20.36874168 42.90227318 -19.23854065 42.91017151 C-17.47242537 42.9103675 -15.70643479 42.85882219 -13.94140625 42.796875 C-12.59846381 41.66967616 -12.59846381 41.66967616 -12.69140625 38.734375 C-13.06523421 32.84658461 -14.27509817 27.93849942 -18.75390625 23.859375 C-26.29966426 18.9768257 -32.31202147 21.09028411 -38.50390625 26.859375 Z M9.05859375 195.796875 C8.02758393 202.54834535 8.02758393 202.54834535 8.80859375 208.671875 C8.9684375 209.41179687 9.12828125 210.15171875 9.29296875 210.9140625 C10.00309333 213.16562943 10.00309333 213.16562943 13.05859375 214.796875 C18.41916069 214.92153935 21.34772036 212.38601317 25.08984375 208.91015625 C30.65406583 203.08675324 30.65406583 203.08675324 33.05859375 195.796875 C25.13859375 195.796875 17.21859375 195.796875 9.05859375 195.796875 Z " fill="#7939EA" transform="translate(253.94140625,147.203125)"/>
<path d="M0 0 C1.17717339 -0.01511375 1.17717339 -0.01511375 2.37812805 -0.03053284 C4.94526794 -0.05879164 7.51181634 -0.06487607 10.07910156 -0.06811523 C11.87412756 -0.07776482 13.66915123 -0.08785793 15.46417236 -0.09837341 C19.21298704 -0.11627434 22.96159486 -0.12189999 26.71044922 -0.12011719 C31.51498744 -0.11981108 36.31820785 -0.16092258 41.12243271 -0.21243382 C44.82334509 -0.24575869 48.52393614 -0.25187622 52.22498322 -0.25028801 C53.99685499 -0.25382776 55.76873512 -0.2670957 57.54045868 -0.29028511 C60.01360051 -0.31965088 62.48384381 -0.31107801 64.95703125 -0.29296875 C65.68749161 -0.30982727 66.41795197 -0.32668579 67.17054749 -0.34405518 C69.21746826 -0.30592346 69.21746826 -0.30592346 72.71972656 0.43579102 C75.07989502 3.4188385 75.07989502 3.4188385 76.71972656 6.43579102 C77.70972656 6.93079102 77.70972656 6.93079102 78.71972656 7.43579102 C78.18207806 11.79724991 77.1599605 14.94544447 74.98144531 18.75219727 C74.41498291 19.7524292 73.84852051 20.75266113 73.26489258 21.78320312 C72.65186279 22.84418213 72.03883301 23.90516113 71.40722656 24.99829102 C70.77421631 26.11018799 70.14120605 27.22208496 69.48901367 28.36767578 C67.57372534 31.72824746 65.64697789 35.0820702 63.71972656 38.43579102 C62.69514216 40.23461741 61.67161447 42.03404633 60.64941406 43.83422852 C54.60541785 54.46597195 48.47908312 65.05019721 42.35888672 75.63818359 C38.25004685 82.75601176 34.18760041 89.89828675 30.15722656 97.06079102 C24.57203121 106.98182784 18.85804468 116.82369624 13.10253906 126.64672852 C10.87222135 130.45499282 8.65857387 134.27207686 6.46191406 138.09985352 C5.95547363 138.98125 5.4490332 139.86264648 4.92724609 140.77075195 C3.98032511 142.420964 3.03584786 144.07258159 2.09423828 145.72583008 C1.46799561 146.81589355 1.46799561 146.81589355 0.82910156 147.92797852 C0.4678418 148.56074707 0.10658203 149.19351563 -0.265625 149.84545898 C-1.28027344 151.43579102 -1.28027344 151.43579102 -3.28027344 153.43579102 C-10.89186477 153.17777097 -15.67067583 150.98739757 -21.09277344 145.68579102 C-25.69848363 138.84302158 -25.56089 131.56584899 -25.47558594 123.59204102 C-25.47275604 122.58234253 -25.46992615 121.57264404 -25.4670105 120.53234863 C-25.45588874 117.33337135 -25.43079907 114.13468251 -25.40527344 110.93579102 C-25.39523329 108.75610758 -25.38610926 106.57641972 -25.37792969 104.39672852 C-25.35597569 99.07631896 -25.32257862 93.75607561 -25.28027344 88.43579102 C-23.60771484 87.74356445 -23.60771484 87.74356445 -21.90136719 87.03735352 C-17.57228175 85.21265447 -17.57228175 85.21265447 -15.28027344 81.43579102 C-14.76066173 78.32395913 -14.68700061 75.5407703 -15.28027344 72.43579102 C-18.16631423 68.56025053 -20.85060796 67.09598497 -25.28027344 65.43579102 C-25.33120065 59.03120336 -25.3661021 52.62666842 -25.39013672 46.22192383 C-25.40016198 44.04547168 -25.41378566 41.8690329 -25.43115234 39.69262695 C-25.45555371 36.55489799 -25.46679157 33.41734793 -25.47558594 30.27954102 C-25.48590851 29.31463745 -25.49623108 28.34973389 -25.50686646 27.35559082 C-25.50806402 20.05935697 -25.24117974 12.83606484 -20.15527344 7.12329102 C-19.61644531 6.4877832 -19.07761719 5.85227539 -18.52246094 5.19750977 C-12.96409641 0.83022335 -6.82289491 -0.01284135 0 0 Z " fill="#7838E9" transform="translate(76.2802734375,189.564208984375)"/>
<path d="M0 0 C3.14053695 0.09213513 6.27986322 0.19844233 9.41943359 0.31933594 C10.50095703 0.34640625 11.58248047 0.37347656 12.69677734 0.40136719 C20.38143602 0.69223949 25.76541766 1.36956087 31.66943359 6.63183594 C35.00959623 10.46319896 35.00209416 12.82345843 34.96240234 17.73730469 C34.74654179 20.73425244 33.93092788 23.29913111 32.79443359 26.06933594 C37.88772209 27.87663186 42.08148898 26.20425956 46.79443359 24.06933594 C49.23362677 22.51544539 51.48318498 20.81456448 53.79443359 19.06933594 C54.45443359 19.06933594 55.11443359 19.06933594 55.79443359 19.06933594 C57.83612844 21.97482476 58.79443359 23.47075639 58.79443359 27.06933594 C57.94880859 27.72933594 57.10318359 28.38933594 56.23193359 29.06933594 C48.94599957 34.81501312 45.12062208 43.08072506 43.79443359 52.06933594 C51.47936715 47.34014605 57.78425101 41.77331221 62.91943359 34.31933594 C66.54528036 29.15286258 69.35220011 25.86076834 75.83349609 24.70605469 C79.43489074 24.47000822 81.59225192 24.94626883 84.66943359 26.81933594 C87.53048035 29.84867956 88.72890692 31.6277491 88.91943359 35.81933594 C88.87818359 36.56183594 88.83693359 37.30433594 88.79443359 38.06933594 C92.61803381 36.58517533 94.0973994 34.53224568 96.29443359 31.13183594 C98.47915649 27.76041129 100.3058388 25.1423663 103.79443359 23.06933594 C106.50578051 22.52918479 109.06843066 22.62530659 111.79443359 23.06933594 C114.10693359 24.63183594 114.10693359 24.63183594 115.79443359 26.06933594 C116.78443359 25.73933594 117.77443359 25.40933594 118.79443359 25.06933594 C125.27377244 24.7222285 125.27377244 24.7222285 128.79443359 27.06933594 C128.79443359 27.72933594 128.79443359 28.38933594 128.79443359 29.06933594 C129.31005859 28.73933594 129.82568359 28.40933594 130.35693359 28.06933594 C133.75565155 26.67499011 136.15037808 26.62182035 139.79443359 27.06933594 C143.57244839 30.19030468 145.61694173 32.29441734 146.10693359 37.19433594 C145.72704781 41.90491961 144.13863392 45.04024163 141.79443359 49.06933594 C147.56155561 44.46506686 152.09480134 39.36718961 156.68115234 33.60058594 C159.8922312 29.75441385 163.60695212 25.63033268 168.74755859 24.72558594 C172.23454433 24.48837602 174.76433429 24.36519098 177.72021484 26.38574219 C180.76625928 29.63534091 181.73865314 31.4836412 182.16943359 36.00683594 C182.04568359 37.01746094 181.92193359 38.02808594 181.79443359 39.06933594 C183.77443359 38.07933594 185.75443359 37.08933594 187.79443359 36.06933594 C189.77443359 38.54433594 189.77443359 38.54433594 191.79443359 41.06933594 C188.99347132 44.39547863 187.05619328 46.23404266 182.79443359 46.94433594 C180.29403867 47.43130424 179.12577934 47.71053059 177.38037109 49.60058594 C176.57315981 50.82963021 175.78008442 52.06807591 175.00146484 53.31542969 C172.45638491 57.01362027 169.22151666 58.75910049 164.91943359 59.69433594 C161.51651091 59.0137514 160.36633702 58.09930759 157.73193359 55.94433594 C155.7567011 54.28816824 155.7567011 54.28816824 153.79443359 53.06933594 C151.02385333 53.32750337 151.02385333 53.32750337 148.79443359 55.06933594 C144.91080941 57.65841873 142.51598604 58.85626134 137.79443359 58.06933594 C134.85693359 56.13183594 134.85693359 56.13183594 132.79443359 53.06933594 C132.38659471 47.61449083 134.15180425 42.21624123 135.79443359 37.06933594 C131.34606169 44.19935047 127.45820096 51.5079437 123.79443359 59.06933594 C119.04443359 58.19433594 119.04443359 58.19433594 116.79443359 57.06933594 C116.24413116 51.84146285 117.781592 48.13114347 119.82177734 43.43652344 C120.69279273 41.31670286 121.30540736 39.30341368 121.79443359 37.06933594 C116.90790496 41.38097885 113.9747997 46.42460237 110.79443359 52.06933594 C110.30201172 52.94332031 109.80958984 53.81730469 109.30224609 54.71777344 C108.1230289 56.8297048 106.95341348 58.94624889 105.79443359 61.06933594 C101.04443359 60.31933594 101.04443359 60.31933594 98.79443359 58.06933594 C98.90352516 51.96020812 100.72939229 47.75834393 103.58349609 42.41308594 C104.97821932 39.71362163 105.95030231 36.98542584 106.79443359 34.06933594 C101.78786795 37.34285963 99.0668942 39.99137983 95.79443359 45.06933594 C93.35137467 46.77947719 91.98210216 47.06099511 88.98193359 47.19433594 C84.71872308 48.36462902 83.1798803 50.65874412 80.50537109 54.06152344 C77.96891121 57.03809965 75.90715895 58.84173302 72.04443359 59.63183594 C67.88127178 58.9112887 65.76702299 57.01590778 62.62646484 54.28417969 C62.02189453 53.88328125 61.41732422 53.48238281 60.79443359 53.06933594 C56.7799737 54.40748924 55.43676917 56.83247485 52.79443359 60.06933594 C49.79443359 62.06933594 49.79443359 62.06933594 46.66943359 62.00683594 C40.70670573 60.56424049 35.25769982 58.26423528 31.79443359 53.06933594 C31.55742389 47.24566893 33.27060442 42.226726 35.79443359 37.06933594 C34.80443359 36.73933594 33.81443359 36.40933594 32.79443359 36.06933594 C32.50568359 36.85308594 32.21693359 37.63683594 31.91943359 38.44433594 C30.79443359 41.06933594 30.79443359 41.06933594 28.79443359 43.06933594 C26.66943359 42.69433594 26.66943359 42.69433594 24.79443359 42.06933594 C24.55300122 37.96498554 25.43837391 34.92396228 26.79443359 31.06933594 C26.06482422 31.45605469 25.33521484 31.84277344 24.58349609 32.24121094 C17.71012393 35.66941137 11.75432234 37.575781 4.23193359 38.88183594 C-1.43466513 39.83873842 -1.43466513 39.83873842 -6.10009766 42.96386719 C-7.14146782 45.33288058 -7.68644694 47.53666219 -8.20556641 50.06933594 C-8.88318479 51.87284332 -9.59178172 53.66500945 -10.33056641 55.44433594 C-10.64251953 56.25644531 -10.95447266 57.06855469 -11.27587891 57.90527344 C-12.20556641 60.06933594 -12.20556641 60.06933594 -14.20556641 63.06933594 C-18.26002282 63.50066109 -19.75527599 63.36952955 -23.20556641 61.06933594 C-23.92440936 55.23790585 -22.30912706 50.99479215 -20.08056641 45.75683594 C-17.49538201 39.42329882 -15.12933274 33.07661671 -13.01806641 26.56933594 C-10.97173265 20.29837796 -8.79180008 14.1423668 -6.20556641 8.06933594 C-5.91681641 7.37066406 -5.62806641 6.67199219 -5.33056641 5.95214844 C-2.88237474 0.09061262 -2.88237474 0.09061262 0 0 Z " fill="#FBF8FB" transform="translate(239.20556640625,230.9306640625)"/>
<path d="M0 0 C4.12722992 4.33691411 5.30801799 10.36226564 7.0715332 15.93505859 C7.68458652 17.86582421 8.31501143 19.79029248 8.94726562 21.71484375 C9.33978516 22.94074219 9.73230469 24.16664062 10.13671875 25.4296875 C10.67365356 27.10393799 10.67365356 27.10393799 11.22143555 28.81201172 C12.29525442 33.20897841 12.69413303 36.40429873 10.86279297 40.61425781 C8.60531164 43.50549078 6.26725798 45.16762658 3.1953125 47.171875 C2.63431854 47.53976135 2.07332458 47.90764771 1.49533081 48.28668213 C0.31354771 49.05808938 -0.8716625 49.8242691 -2.06005859 50.58544922 C-3.87111098 51.74750462 -5.66834664 52.92888023 -7.46484375 54.11328125 C-18.1617224 61.06316251 -18.1617224 61.06316251 -22 61 C-26.20988397 57.77426483 -27.87936336 54.58279698 -29.45703125 49.59765625 C-29.84697266 48.37755859 -30.23691406 47.15746094 -30.63867188 45.90039062 C-30.83130615 45.26979736 -31.02394043 44.6392041 -31.22241211 43.98950195 C-31.8115883 42.06547727 -32.4261634 40.15101868 -33.04492188 38.23632812 C-36.49953912 27.23380764 -36.49953912 27.23380764 -36 22 C-32.99430329 16.36636009 -27.42823933 12.99190061 -22.0625 9.875 C-20.69785294 9.06218453 -19.33456011 8.24709097 -17.97265625 7.4296875 C-17.31056152 7.03547607 -16.6484668 6.64126465 -15.96630859 6.23510742 C-13.97785439 4.98608957 -12.11165771 3.63474009 -10.23046875 2.23046875 C-6.42709641 -0.39555979 -4.52869851 -0.7838132 0 0 Z " fill="#7536E4" transform="translate(425,73)"/>
<path d="M0 0 C1.03125 0.268125 2.0625 0.53625 3.125 0.8125 C4.6219652 4.71223736 3.55882672 7.37009243 2.3125 11.25 C-1.37268611 23.67797245 -2.17492165 35.4128079 -2.44604492 48.31958008 C-2.4741626 49.37169678 -2.50228027 50.42381348 -2.53125 51.5078125 C-2.54994141 52.45672363 -2.56863281 53.40563477 -2.58789062 54.38330078 C-2.875 56.8125 -2.875 56.8125 -4.875 59.8125 C-13.10309429 58.65677187 -13.10309429 58.65677187 -15.875 55.625 C-16.875 52.8125 -16.875 52.8125 -17.875 45.8125 C-22.495 45.1525 -27.115 44.4925 -31.875 43.8125 C-33.793125 46.4421875 -33.793125 46.4421875 -35.75 49.125 C-36.46929687 50.11113281 -37.18859375 51.09726562 -37.9296875 52.11328125 C-39.2805935 53.98773115 -40.59335329 55.89002993 -41.875 57.8125 C-45.60987777 57.3145163 -47.68737635 56.93758244 -50.875 54.8125 C-50.47271526 49.51180698 -48.53824341 46.62522025 -45.0625 42.8125 C-44.04787212 41.66172715 -43.03355951 40.51067626 -42.01953125 39.359375 C-41.49568848 38.77220703 -40.9718457 38.18503906 -40.43212891 37.58007812 C-38.94770957 35.89503642 -37.50488516 34.18389229 -36.07421875 32.453125 C-30.35819273 25.56539833 -24.32641824 19.08322816 -18 12.75 C-17.28634277 12.03553711 -16.57268555 11.32107422 -15.83740234 10.58496094 C-4.89978952 -0.23708659 -4.89978952 -0.23708659 0 0 Z " fill="#FAF7FB" transform="translate(200.875,232.1875)"/>
<path d="M0 0 C4.51020195 0.38658874 7.38429295 2.39332748 11 5 C10.43431776 9.10420518 9.51850449 12.57643664 7.875 16.375 C7.42898437 17.41398437 6.98296875 18.45296875 6.5234375 19.5234375 C6.02070313 20.67070312 5.51796875 21.81796875 5 23 C4.4296608 24.30467583 3.85934932 25.60936377 3.2890625 26.9140625 C2.39387631 28.96199464 1.49618409 31.00859885 0.58959961 33.05151367 C-1.25510912 37.22178889 -2.93283535 41.42731556 -4.5625 45.6875 C-6.59396769 50.59242528 -8.36378894 53.33664471 -13 56 C-15.35560128 55.8726702 -16.34378382 55.65621618 -18 54 C-17.84945979 47.98587721 -16.46424641 42.19031149 -14.8125 36.4375 C-14.59400391 35.66664063 -14.37550781 34.89578125 -14.15039062 34.1015625 C-5.98122567 5.98122567 -5.98122567 5.98122567 0 0 Z " fill="#FAF7FB" transform="translate(217,234)"/>
<path d="M0 0 C0.66 0.33 1.32 0.66 2 1 C1.23302719 3.35548567 0.46153799 5.70933579 -0.3125 8.0625 C-0.52583984 8.71927734 -0.73917969 9.37605469 -0.95898438 10.05273438 C-2.00921009 13.23476153 -3.12878058 16.29979565 -4.453125 19.3828125 C-6.33837432 23.79124904 -7.88526093 28.2784067 -9.4375 32.8125 C-11.78913612 39.61453759 -14.19097884 46.37001217 -17 53 C-18.32 52.67 -19.64 52.34 -21 52 C-22.65 53.98 -24.3 55.96 -26 58 C-27.32 57.67 -28.64 57.34 -30 57 C-29.25363281 56.50628906 -28.50726563 56.01257813 -27.73828125 55.50390625 C-24.26708957 52.32982085 -22.95018334 49.2290304 -21.1875 44.9375 C-20.85347168 44.15544189 -20.51944336 43.37338379 -20.17529297 42.56762695 C-19.10379966 40.05039267 -18.05195376 37.52545374 -17 35 C-16.26041005 33.25465881 -15.51952534 31.50986571 -14.77734375 29.765625 C-13.09937219 25.8123615 -11.42696649 21.85702989 -9.78613281 17.88818359 C-9.13329537 16.32015726 -8.45639565 14.7621748 -7.7734375 13.20703125 C-6.7795184 10.76061969 -6.7795184 10.76061969 -7 7 C-7.66 6.34 -8.32 5.68 -9 5 C-7.54735962 4.1361871 -6.0876837 3.28419546 -4.625 2.4375 C-3.81289062 1.96183594 -3.00078125 1.48617187 -2.1640625 0.99609375 C-1.44992188 0.66738281 -0.73578125 0.33867187 0 0 Z " fill="#824AE5" transform="translate(234,232)"/>
<path d="M0 0 C1.15628906 -0.01417969 2.31257813 -0.02835938 3.50390625 -0.04296875 C6.4375 0.1875 6.4375 0.1875 8.4375 2.1875 C8.34758565 5.514331 7.54277268 7.05166429 5.5 9.6875 C-0.46814016 14.55945115 -6.8410808 17.68392918 -14.5625 18.1875 C-13.92948143 12.33207821 -12.17122513 6.46791949 -9.5625 1.1875 C-6.1971364 0.06571213 -3.5421245 0.01978841 0 0 Z " fill="#7C3CEB" transform="translate(253.5625,242.8125)"/>
<path d="M0 0 C0.79062332 -0.00014603 1.58124664 -0.00029205 2.39582825 -0.0004425 C5.00382246 0.00025303 7.61174486 0.00802864 10.21972656 0.01586914 C12.03004924 0.01773459 13.84037243 0.0191579 15.6506958 0.02015686 C20.41165566 0.023972 25.17258493 0.03379374 29.93353271 0.04486084 C34.79324937 0.05509652 39.65297098 0.0596591 44.51269531 0.06469727 C54.04526082 0.07541689 63.57780365 0.09248129 73.11035156 0.11352539 C74.43035156 2.42352539 75.75035156 4.73352539 77.11035156 7.11352539 C76.16160156 7.25790039 75.21285156 7.40227539 74.23535156 7.55102539 C71.21690216 7.94287938 71.21690216 7.94287938 69.11035156 9.11352539 C69.57441406 8.24727539 69.57441406 8.24727539 70.04785156 7.36352539 C71.0390654 5.26448432 71.58583957 3.36278401 72.11035156 1.11352539 C61.93086134 1.22123178 51.75143925 1.33390605 41.57207394 1.45286465 C36.8450285 1.5079512 32.11797673 1.56134776 27.39086914 1.61083984 C22.82615063 1.65869463 18.26150348 1.71104388 13.6968708 1.76646614 C11.95824531 1.7867944 10.21960033 1.80552263 8.48093987 1.82259941 C6.03954937 1.84685573 3.5982911 1.87687938 1.15698242 1.90820312 C0.44344101 1.91395859 -0.2701004 1.91971405 -1.00526428 1.92564392 C-5.39711096 1.98939653 -9.56578231 2.41069379 -13.88964844 3.11352539 C-10.01751002 -0.75861302 -5.1962937 -0.02514319 0 0 Z " fill="#5F24C9" transform="translate(75.8896484375,189.886474609375)"/>
<path d="M0 0 C0.66 0 1.32 0 2 0 C1.01 4.95 0.02 9.9 -1 15 C-4.3 15 -7.6 15 -11 15 C-9.92989807 10.71959227 -9.15652197 9.84129277 -6.0625 6.9375 C-3.65451669 4.66062286 -1.85163848 2.77745772 0 0 Z " fill="#7F43E8" transform="translate(186,255)"/>
<path d="M0 0 C2.0625 0.4375 2.0625 0.4375 4 1 C2.21348067 4.1279697 0.41991773 7.25184315 -1.375 10.375 C-1.88289063 11.26445312 -2.39078125 12.15390625 -2.9140625 13.0703125 C-3.40390625 13.92109375 -3.89375 14.771875 -4.3984375 15.6484375 C-4.84880371 16.43395996 -5.29916992 17.21948242 -5.76318359 18.02880859 C-7 20 -7 20 -9 22 C-16.18421053 21.54385965 -16.18421053 21.54385965 -20 19 C-16.37 19.33 -12.74 19.66 -9 20 C-9.33 18.68 -9.66 17.36 -10 16 C-9.34 15.34 -8.68 14.68 -8 14 C-7.01 14 -6.02 14 -5 14 C-4.67 12.02 -4.34 10.04 -4 8 C-3.01 7.67 -2.02 7.34 -1 7 C-1.020625 6.030625 -1.04125 5.06125 -1.0625 4.0625 C-1 1 -1 1 0 0 Z " fill="#5622B8" transform="translate(82,321)"/>
<path d="M0 0 C1.65 0.33 3.3 0.66 5 1 C4.27991594 5.60853797 2.68704061 9.67237409 1 14 C0.33333333 12 -0.33333333 10 -1 8 C-2.32 11.3 -3.64 14.6 -5 18 C-5.66 18 -6.32 18 -7 18 C-5.64474464 13.78224268 -4.09799886 9.70578678 -2.375 5.625 C-1.92898437 4.56539063 -1.48296875 3.50578125 -1.0234375 2.4140625 C-0.68570313 1.61742187 -0.34796875 0.82078125 0 0 Z " fill="#834CE1" transform="translate(222,255)"/>
<path d="M0 0 C0.66 0 1.32 0 2 0 C1.46148032 5.27749285 0.22656164 9.25645564 -2 14 C-2.66 13.01 -3.32 12.02 -4 11 C-4.99 11.33 -5.98 11.66 -7 12 C-7 12.66 -7 13.32 -7 14 C-7.66 13.67 -8.32 13.34 -9 13 C-7.8782037 11.2063257 -6.75245517 9.4151227 -5.625 7.625 C-4.99851562 6.62726563 -4.37203125 5.62953125 -3.7265625 4.6015625 C-2 2 -2 2 0 0 Z " fill="#8554DE" transform="translate(359,268)"/>
<path d="M0 0 C0.24042276 4.08718695 -0.57741188 7.17679443 -2 11 C-2.886875 10.360625 -3.77375 9.72125 -4.6875 9.0625 C-7.69211428 7.19170243 -9.5510371 6.40576034 -13 6 C-10.87838666 3.87838666 -9.2266841 3.07013751 -6.5 1.875 C-5.7059375 1.52179688 -4.911875 1.16859375 -4.09375 0.8046875 C-2 0 -2 0 0 0 Z " fill="#824BE4" transform="translate(266,262)"/>
<path d="M0 0 C-1.1454153 5.1103144 -2.45478745 9.37234081 -5 14 C-5.433125 13.1028125 -5.433125 13.1028125 -5.875 12.1875 C-7.04742026 9.80672208 -7.04742026 9.80672208 -9 7 C-3.65789474 0 -3.65789474 0 0 0 Z " fill="#7C3DE8" transform="translate(346,265)"/>
<path d="M0 0 C1 2 1 2 0.44140625 3.8828125 C0.15136719 4.62273437 -0.13867188 5.36265625 -0.4375 6.125 C-2.04827624 10.64249519 -2.26008961 14.23169044 -2 19 C-3.32 18.67 -4.64 18.34 -6 18 C-6 17.34 -6 16.68 -6 16 C-5.34 16 -4.68 16 -4 16 C-4.99 15.01 -5.98 14.02 -7 13 C-5.58832253 7.73829306 -3.25149768 4.27828642 0 0 Z " fill="#844FDF" transform="translate(375,267)"/>
<path d="M0 0 C0.93423645 3.01031744 1.04449911 3.86650268 0 7 C2.31 7.33 4.62 7.66 7 8 C7.33 7.34 7.66 6.68 8 6 C8.99 6.66 9.98 7.32 11 8 C9.23141309 8.67260351 7.46003984 9.33788395 5.6875 10 C4.70136719 10.37125 3.71523437 10.7425 2.69921875 11.125 C0 12 0 12 -3 12 C-2.40075776 7.80530429 -1.42500059 3.99000166 0 0 Z " fill="#8650E1" transform="translate(242,249)"/>
<path d="M0 0 C1.125 1.75 1.125 1.75 2 4 C0.87472014 7.87596398 -2.06542531 10.35888278 -5 13 C-5.66 13 -6.32 13 -7 13 C-4.29384966 3.40546697 -4.29384966 3.40546697 0 0 Z " fill="#8451E0" transform="translate(316,266)"/>
<path d="M0 0 C2 3 2 3 1.9375 4.875 C0.34260194 8.49010227 -2.47519085 11.23759543 -6 13 C-5.63118644 6.85310727 -4.09949571 4.30972626 0 0 Z " fill="#834FE0" transform="translate(409,266)"/>
<path d="M0 0 C0.66 0.33 1.32 0.66 2 1 C0.92173635 2.27513763 -0.16285519 3.54492569 -1.25 4.8125 C-1.85328125 5.52019531 -2.4565625 6.22789062 -3.078125 6.95703125 C-4.93811214 8.9342127 -6.73103544 10.51392197 -9 12 C-9.66 12 -10.32 12 -11 12 C-11.66 13.32 -12.32 14.64 -13 16 C-13.66 16 -14.32 16 -15 16 C-15 16.66 -15 17.32 -15 18 C-15.66 18 -16.32 18 -17 18 C-15.43727522 14.2285078 -13.07921327 11.84402385 -10.1875 9 C-9.33542969 8.154375 -8.48335937 7.30875 -7.60546875 6.4375 C-5.16027385 4.14994135 -2.64475158 2.05122565 0 0 Z " fill="#4E1DAA" transform="translate(200,148)"/>
<path d="M0 0 C-0.92727273 9.27272727 -0.92727273 9.27272727 -3 12 C-5.125 12.75 -5.125 12.75 -7 13 C-6.40210642 8.81474495 -5.63735965 4.91147027 -4 1 C-1 0 -1 0 0 0 Z " fill="#7D42E4" transform="translate(230,244)"/>
<path d="M0 0 C1.32 0.33 2.64 0.66 4 1 C2.68 4.63 1.36 8.26 0 12 C-0.99 11.01 -1.98 10.02 -3 9 C-5.60611077 8.27802838 -5.60611077 8.27802838 -8 8 C-7.67 7.34 -7.34 6.68 -7 6 C-6.38125 5.896875 -5.7625 5.79375 -5.125 5.6875 C-2.05605613 4.6946064 -1.42456635 2.77790438 0 0 Z " fill="#8350DF" transform="translate(272,267)"/>
<path d="M0 0 C0.66 0 1.32 0 2 0 C1.01 4.95 0.02 9.9 -1 15 C-4.3 15 -7.6 15 -11 15 C-11 14.67 -11 14.34 -11 14 C-8.36 13.67 -5.72 13.34 -3 13 C-2.34 10.69 -1.68 8.38 -1 6 C-1.99 5.67 -2.98 5.34 -4 5 C-2.71937515 3.2925002 -1.38232443 1.62626404 0 0 Z " fill="#875ADC" transform="translate(186,255)"/>
<path d="M0 0 C9.23805298 -0.48550351 16.54022812 0.13267571 25 4 C22 5 22 5 19.75 4 C16.19244939 2.70634523 13.66378506 3.28161077 10 4 C10 3.01 10 2.02 10 1 C6.7 1 3.4 1 0 1 C0 0.67 0 0.34 0 0 Z " fill="#4716A5" transform="translate(222,139)"/>
<path d="M0 0 C0.66 0.33 1.32 0.66 2 1 C-0.31 4.96 -2.62 8.92 -5 13 C-6.25640898 10.48718205 -6.20872719 8.78302919 -6 6 C-5.34 5.34 -4.68 4.68 -4 4 C-3.67 3.01 -3.34 2.02 -3 1 C-2.01 0.67 -1.02 0.34 0 0 Z " fill="#5B25BB" transform="translate(112,272)"/>
<path d="M0 0 C0.33 0 0.66 0 1 0 C1 1.65 1 3.3 1 5 C1.99 5.33 2.98 5.66 4 6 C3.04882866 7.1725131 2.08882991 8.33787015 1.125 9.5 C0.59132813 10.1496875 0.05765625 10.799375 -0.4921875 11.46875 C-0.98976563 11.9740625 -1.48734375 12.479375 -2 13 C-2.66 13 -3.32 13 -4 13 C-3.71125 12.34 -3.4225 11.68 -3.125 11 C-1.76562701 7.37500535 -0.89375361 3.76653307 0 0 Z " fill="#8857DE" transform="translate(385,267)"/>
<path d="M0 0 C-3.33333333 1.66666667 -6.66666667 3.33333333 -10 5 C-11.02867187 5.60714844 -11.02867187 5.60714844 -12.078125 6.2265625 C-14.45185001 7.18184208 -15.63176186 6.84579934 -18 6 C-16.06374902 5.01836578 -14.12595461 4.03977546 -12.1875 3.0625 C-11.10855469 2.51722656 -10.02960938 1.97195312 -8.91796875 1.41015625 C-3.55081967 -1.18360656 -3.55081967 -1.18360656 0 0 Z " fill="#4C1BA9" transform="translate(220,141)"/>
<path d="M0 0 C-0.99 2.64 -1.98 5.28 -3 8 C-4.32 7.34 -5.64 6.68 -7 6 C-6.75 3.625 -6.75 3.625 -6 1 C-2.69333333 -1.34666667 -2.69333333 -1.34666667 0 0 Z " fill="#8147E6" transform="translate(236,233)"/>
<path d="M0 0 C2.12472576 -0.05386629 4.24983652 -0.09273071 6.375 -0.125 C7.55835938 -0.14820313 8.74171875 -0.17140625 9.9609375 -0.1953125 C13 0 13 0 15 2 C14.625 4.625 14.625 4.625 14 7 C11 3.25 11 3.25 11 1 C7.37 1 3.74 1 0 1 C0 0.67 0 0.34 0 0 Z M10 4 C12 5 12 5 12 5 Z " fill="#8451DE" transform="translate(247,243)"/>
<path d="M0 0 C0.66 0.33 1.32 0.66 2 1 C0.7934375 2.0828125 0.7934375 2.0828125 -0.4375 3.1875 C-3.02292072 6.02515689 -3.68042813 7.27166147 -4 11 C-5.32 11.33 -6.64 11.66 -8 12 C-6.71999898 6.99635967 -4.82671924 4.43423522 -1 1 C-0.67 0.67 -0.34 0.34 0 0 Z " fill="#5721BB" transform="translate(385,142)"/>
<path d="M0 0 C0.66 0.33 1.32 0.66 2 1 C1.67 3.31 1.34 5.62 1 8 C-0.65 8.66 -2.3 9.32 -4 10 C-2.68 6.7 -1.36 3.4 0 0 Z " fill="#7A39EC" transform="translate(221,262)"/>
<path d="M0 0 C0.66386719 0.14179688 1.32773438 0.28359375 2.01171875 0.4296875 C2.01171875 0.7596875 2.01171875 1.0896875 2.01171875 1.4296875 C-0.29828125 1.4296875 -2.60828125 1.4296875 -4.98828125 1.4296875 C-5.31828125 2.0896875 -5.64828125 2.7496875 -5.98828125 3.4296875 C-6.64828125 3.4296875 -7.30828125 3.4296875 -7.98828125 3.4296875 C-9.61342593 4.88802108 -9.61342593 4.88802108 -10.98828125 6.4296875 C-11.64828125 6.0996875 -12.30828125 5.7696875 -12.98828125 5.4296875 C-9.2470591 -0.68097534 -6.98838649 -1.16303074 0 0 Z " fill="#8957DE" transform="translate(176.98828125,275.5703125)"/>
<path d="M0 0 C0.66 0.33 1.32 0.66 2 1 C0.44499019 4.81684226 -2.03595495 7.19195732 -5 10 C-5.33 8.35 -5.66 6.7 -6 5 C-5.195625 4.54625 -4.39125 4.0925 -3.5625 3.625 C-0.91143428 2.25274335 -0.91143428 2.25274335 0 0 Z " fill="#824CE2" transform="translate(162,264)"/>
<path d="M0 0 C1.65 0.33 3.3 0.66 5 1 C4.67 2.65 4.34 4.3 4 6 C2 6 0 6 -2 6 C-1.34 4.02 -0.68 2.04 0 0 Z " fill="#8C58E3" transform="translate(222,255)"/>
<path d="M0 0 C0.66 0 1.32 0 2 0 C1.67 2.31 1.34 4.62 1 7 C0.34 6.01 -0.32 5.02 -1 4 C-1.99 4.33 -2.98 4.66 -4 5 C-4 5.66 -4 6.32 -4 7 C-4.66 6.67 -5.32 6.34 -6 6 C-4 4 -2 2 0 0 Z " fill="#814AE4" transform="translate(356,275)"/>
<path d="M0 0 C2.31 0.33 4.62 0.66 7 1 C6.01 1.495 6.01 1.495 5 2 C5.33 2.99 5.66 3.98 6 5 C5.01 5.33 4.02 5.66 3 6 C3 5.34 3 4.68 3 4 C2.01 3.67 1.02 3.34 0 3 C0 2.01 0 1.02 0 0 Z " fill="#8043E6" transform="translate(153,289)"/>
<path d="M0 0 C1.21744727 3.65234182 0.64202228 4.62953322 -1 8 C-3 10 -3 10 -5.625 10.125 C-6.40875 10.08375 -7.1925 10.0425 -8 10 C-7.67 9.34 -7.34 8.68 -7 8 C-6.01 8 -5.02 8 -4 8 C-2.68 5.36 -1.36 2.72 0 0 Z " fill="#804CDF" transform="translate(349,283)"/>
<path d="M0 0 C0.33 0 0.66 0 1 0 C1.41176754 3.60296594 1.1535853 4.78402067 -1 7.8125 C-1.66 8.534375 -2.32 9.25625 -3 10 C-4.32 9.67 -5.64 9.34 -7 9 C-6.21625 8.443125 -5.4325 7.88625 -4.625 7.3125 C-1.91295142 4.92331435 -1.03866457 3.39926587 0 0 Z " fill="#8553E0" transform="translate(211,280)"/>
<path d="M0 0 C-0.33 1.98 -0.66 3.96 -1 6 C-1.33 5.01 -1.66 4.02 -2 3 C-3.65 4.65 -5.3 6.3 -7 8 C-7.66 7.67 -8.32 7.34 -9 7 C-3.65789474 0 -3.65789474 0 0 0 Z " fill="#885CD9" transform="translate(346,265)"/>
<path d="M0 0 C1.99097846 2.98646769 2.94124926 5.59687262 4 9 C2.02 9 0.04 9 -2 9 C-1.505 7.88625 -1.505 7.88625 -1 6.75 C0.22782871 3.86116688 0.22782871 3.86116688 0 0 Z " fill="#5822B8" transform="translate(262,159)"/>
<path d="M0 0 C1 3 1 3 0.125 5.0625 C-0.24625 5.701875 -0.6175 6.34125 -1 7 C-1.33 7.66 -1.66 8.32 -2 9 C-2.66 9 -3.32 9 -4 9 C-2.94124926 5.59687262 -1.99097846 2.98646769 0 0 Z " fill="#4F20AA" transform="translate(81,339)"/>
<path d="M0 0 C0.66 0.99 1.32 1.98 2 3 C1.67 3.99 1.34 4.98 1 6 C-1.0625 6.6875 -1.0625 6.6875 -3 7 C-1.125 1.125 -1.125 1.125 0 0 Z " fill="#5F28BF" transform="translate(129,255)"/>
<path d="M0 0 C1.125 1.75 1.125 1.75 2 4 C1.125 6.25 1.125 6.25 0 8 C-0.99 7.67 -1.98 7.34 -3 7 C-2.01 4.69 -1.02 2.38 0 0 Z " fill="#8F5CE5" transform="translate(228,286)"/>
<path d="M0 0 C0.6875 1.6875 0.6875 1.6875 1 4 C-0.3125 6.75 -0.3125 6.75 -2 9 C-2.66 9 -3.32 9 -4 9 C-2.94124926 5.59687262 -1.99097846 2.98646769 0 0 Z " fill="#5421B3" transform="translate(134,246)"/>
<path d="M0 0 C3.77545388 1.09068668 6.47043472 1.9083091 9 5 C5.625 4.75 5.625 4.75 2 4 C0.5625 1.9375 0.5625 1.9375 0 0 Z " fill="#481AAA" transform="translate(443,191)"/>
<path d="M0 0 C0 0.99 0 1.98 0 3 C-4.455 4.485 -4.455 4.485 -9 6 C-3.2 0 -3.2 0 0 0 Z " fill="#582CB0" transform="translate(411,79)"/>
<path d="M0 0 C0.99 0.33 1.98 0.66 3 1 C3 3 3 3 1.125 5.125 C-1 7 -1 7 -3 7 C-1.125 1.125 -1.125 1.125 0 0 Z " fill="#5B25BD" transform="translate(76,348)"/>
<path d="M0 0 C0.66 1.32 1.32 2.64 2 4 C1.01 4.33 0.02 4.66 -1 5 C-1.33 5.99 -1.66 6.98 -2 8 C-2.66 8 -3.32 8 -4 8 C-2.87548273 5.0280615 -1.77706209 2.66559313 0 0 Z " fill="#511EAB" transform="translate(173,179)"/>
</svg>
